# Blender v2.79 (sub 7) OBJ File: ''
# www.blender.org
mtllib sphere.mtl
o Sphere
v 0.000000 0.866025 -0.500000
v 0.000000 0.500000 -0.866025
v 0.000000 0.258819 -0.965926
v 0.000000 0.000000 -1.000000
v 0.000000 -0.258819 -0.965926
v 0.000000 -0.500000 -0.866026
v 0.000000 -0.707107 -0.707107
v 0.000000 -0.866025 -0.500000
v 0.000000 -0.965926 -0.258819
v 0.000000 -1.000000 -0.000000
v 0.129409 0.965926 -0.224144
v 0.250000 0.866025 -0.433013
v 0.353553 0.707107 -0.612372
v 0.433013 0.500000 -0.750000
v 0.482963 0.258819 -0.836516
v 0.500000 0.000000 -0.866025
v 0.482963 -0.258819 -0.836516
v 0.433013 -0.500000 -0.750000
v 0.353553 -0.707107 -0.612373
v 0.250000 -0.866025 -0.433013
v 0.129409 -0.965926 -0.224144
v 0.224144 0.965926 -0.129410
v 0.433012 0.866025 -0.250000
v 0.612372 0.707107 -0.353554
v 0.750000 0.500000 -0.433013
v 0.836516 0.258819 -0.482963
v 0.866025 0.000000 -0.500000
v 0.836516 -0.258819 -0.482963
v 0.750000 -0.500000 -0.433013
v 0.612372 -0.707107 -0.353554
v 0.433013 -0.866025 -0.250000
v 0.224144 -0.965926 -0.129410
v 0.258819 0.965926 -0.000000
v 0.500000 0.866025 -0.000000
v 0.707106 0.707107 -0.000000
v 0.866025 0.500000 -0.000000
v 0.965925 0.258819 -0.000000
v 1.000000 0.000000 -0.000000
v 0.965926 -0.258819 -0.000000
v 0.866025 -0.500000 -0.000000
v 0.707107 -0.707107 -0.000000
v 0.500000 -0.866025 -0.000000
v 0.258819 -0.965926 -0.000000
v 0.224144 0.965926 0.129409
v 0.433012 0.866025 0.249999
v 0.612372 0.707107 0.353553
v 0.750000 0.500000 0.433012
v 0.836516 0.258819 0.482962
v 0.866025 0.000000 0.499999
v 0.836516 -0.258819 0.482962
v 0.750000 -0.500000 0.433012
v 0.612372 -0.707107 0.353553
v 0.433012 -0.866025 0.250000
v 0.224144 -0.965926 0.129409
v 0.129409 0.965926 0.224143
v 0.250000 0.866025 0.433012
v 0.353553 0.707107 0.612372
v 0.433012 0.500000 0.749999
v 0.482963 0.258819 0.836516
v 0.500000 0.000000 0.866025
v 0.482963 -0.258819 0.836516
v 0.433013 -0.500000 0.749999
v 0.353553 -0.707107 0.612372
v 0.250000 -0.866025 0.433012
v 0.129409 -0.965926 0.224143
v 0.000000 0.965926 0.258818
v -0.000000 0.866025 0.499999
v -0.000000 0.707107 0.707106
v -0.000000 0.500000 0.866025
v -0.000000 0.258819 0.965925
v -0.000000 0.000000 0.999999
v -0.000000 -0.258819 0.965925
v -0.000000 -0.500000 0.866025
v -0.000000 -0.707107 0.707106
v -0.000000 -0.866025 0.499999
v 0.000000 -0.965926 0.258819
v -0.129409 0.965926 0.224143
v -0.250000 0.866025 0.433012
v -0.353553 0.707107 0.612372
v -0.433012 0.500000 0.749999
v -0.482963 0.258819 0.836516
v -0.500000 0.000000 0.866025
v -0.482963 -0.258819 0.836516
v -0.433013 -0.500000 0.749999
v -0.353553 -0.707107 0.612372
v -0.250000 -0.866025 0.433012
v -0.129409 -0.965926 0.224143
v -0.224143 0.965926 0.129409
v -0.433012 0.866025 0.249999
v -0.612372 0.707107 0.353553
v -0.750000 0.500000 0.433012
v -0.836516 0.258819 0.482962
v -0.866025 0.000000 0.499999
v -0.836516 -0.258819 0.482962
v -0.750000 -0.500000 0.433012
v -0.612372 -0.707107 0.353553
v -0.433013 -0.866025 0.249999
v -0.224144 -0.965926 0.129409
v -0.258819 0.965926 -0.000000
v -0.499999 0.866025 -0.000000
v -0.707106 0.707107 -0.000001
v -0.866025 0.500000 -0.000000
v -0.965925 0.258819 -0.000000
v -0.999999 0.000000 -0.000001
v -0.965925 -0.258819 -0.000000
v -0.866025 -0.500000 -0.000000
v -0.707107 -0.707107 -0.000000
v -0.500000 -0.866025 -0.000000
v -0.258819 -0.965926 -0.000000
v -0.224143 0.965926 -0.129410
v -0.433012 0.866025 -0.250000
v -0.612372 0.707107 -0.353554
v -0.749999 0.500000 -0.433013
v -0.836516 0.258819 -0.482963
v -0.866025 0.000000 -0.500000
v -0.836516 -0.258819 -0.482963
v -0.750000 -0.500000 -0.433013
v -0.612372 -0.707107 -0.353554
v -0.433012 -0.866025 -0.250000
v -0.224144 -0.965926 -0.129410
v -0.129409 0.965926 -0.224144
v -0.250000 0.866025 -0.433013
v -0.353553 0.707107 -0.612372
v -0.433012 0.500000 -0.750000
v -0.482963 0.258819 -0.836516
v -0.500000 0.000000 -0.866025
v -0.482963 -0.258819 -0.836516
v -0.433012 -0.500000 -0.750000
v -0.353553 -0.707107 -0.612373
v -0.250000 -0.866025 -0.433013
v -0.129409 -0.965926 -0.224144
v -0.000000 1.000000 -0.000000
v 0.000000 0.965926 -0.258819
v 0.000000 0.707107 -0.707107
vn 0.2403 0.3715 -0.8968
vn 0.0350 -0.9908 -0.1304
vn 0.1020 0.9191 -0.3807
vn 0.2079 -0.5955 -0.7760
vn 0.2568 0.1262 -0.9582
vn 0.1610 0.7830 -0.6008
vn 0.1610 -0.7830 -0.6008
vn 0.2568 -0.1262 -0.9582
vn 0.2079 0.5955 -0.7760
vn 0.1020 -0.9191 -0.3807
vn 0.0350 0.9908 -0.1304
vn 0.2403 -0.3715 -0.8968
vn 0.4398 0.7830 -0.4398
vn 0.4398 -0.7830 -0.4398
vn 0.7015 -0.1262 -0.7015
vn 0.5681 0.5955 -0.5681
vn 0.2787 -0.9191 -0.2787
vn 0.0955 0.9908 -0.0955
vn 0.6565 -0.3715 -0.6565
vn 0.6565 0.3715 -0.6565
vn 0.0955 -0.9908 -0.0955
vn 0.2787 0.9191 -0.2787
vn 0.5681 -0.5955 -0.5681
vn 0.7015 0.1262 -0.7015
vn 0.1304 -0.9908 -0.0350
vn 0.3807 0.9191 -0.1020
vn 0.7760 -0.5955 -0.2079
vn 0.9582 0.1262 -0.2568
vn 0.6008 0.7830 -0.1610
vn 0.6008 -0.7830 -0.1610
vn 0.9582 -0.1262 -0.2568
vn 0.7760 0.5955 -0.2079
vn 0.3807 -0.9191 -0.1020
vn 0.1304 0.9908 -0.0350
vn 0.8968 -0.3715 -0.2403
vn 0.8968 0.3715 -0.2403
vn 0.7760 0.5955 0.2079
vn 0.3807 -0.9191 0.1020
vn 0.1304 0.9908 0.0350
vn 0.8968 -0.3715 0.2403
vn 0.8968 0.3715 0.2403
vn 0.1304 -0.9908 0.0350
vn 0.3807 0.9191 0.1020
vn 0.7760 -0.5955 0.2079
vn 0.9582 0.1262 0.2568
vn 0.6008 0.7830 0.1610
vn 0.6008 -0.7830 0.1610
vn 0.9582 -0.1261 0.2568
vn 0.4398 0.7830 0.4398
vn 0.4398 -0.7830 0.4398
vn 0.7015 -0.1262 0.7015
vn 0.5681 0.5955 0.5681
vn 0.2787 -0.9191 0.2787
vn 0.0955 0.9908 0.0955
vn 0.6565 -0.3715 0.6565
vn 0.6565 0.3715 0.6565
vn 0.0955 -0.9908 0.0955
vn 0.2787 0.9191 0.2787
vn 0.5681 -0.5955 0.5681
vn 0.7015 0.1262 0.7015
vn 0.2403 0.3715 0.8968
vn 0.0350 -0.9908 0.1304
vn 0.1020 0.9191 0.3807
vn 0.2079 -0.5955 0.7760
vn 0.2568 0.1262 0.9582
vn 0.1610 0.7830 0.6008
vn 0.1610 -0.7830 0.6008
vn 0.2568 -0.1262 0.9582
vn 0.2079 0.5955 0.7760
vn 0.1020 -0.9191 0.3807
vn 0.0350 0.9908 0.1304
vn 0.2403 -0.3715 0.8968
vn -0.2079 0.5955 0.7760
vn -0.1020 -0.9191 0.3807
vn -0.0350 0.9908 0.1304
vn -0.2403 -0.3715 0.8968
vn -0.2403 0.3715 0.8968
vn -0.0350 -0.9908 0.1304
vn -0.1020 0.9191 0.3807
vn -0.2079 -0.5955 0.7760
vn -0.2568 0.1262 0.9582
vn -0.1610 0.7830 0.6008
vn -0.1610 -0.7830 0.6008
vn -0.2568 -0.1262 0.9582
vn -0.7015 0.1262 0.7015
vn -0.4398 0.7830 0.4398
vn -0.4398 -0.7830 0.4398
vn -0.7015 -0.1262 0.7015
vn -0.5681 0.5955 0.5681
vn -0.2787 -0.9191 0.2787
vn -0.0955 0.9908 0.0955
vn -0.6565 -0.3715 0.6565
vn -0.6565 0.3715 0.6565
vn -0.0955 -0.9908 0.0955
vn -0.2787 0.9191 0.2787
vn -0.5681 -0.5955 0.5681
vn -0.8968 0.3715 0.2403
vn -0.1304 -0.9908 0.0350
vn -0.3807 0.9191 0.1020
vn -0.7760 -0.5955 0.2079
vn -0.9582 0.1262 0.2568
vn -0.6008 0.7830 0.1610
vn -0.6008 -0.7830 0.1610
vn -0.9582 -0.1262 0.2568
vn -0.7760 0.5955 0.2079
vn -0.3807 -0.9191 0.1020
vn -0.1304 0.9908 0.0350
vn -0.8968 -0.3715 0.2403
vn -0.9582 -0.1262 -0.2568
vn -0.7760 0.5955 -0.2079
vn -0.3807 -0.9191 -0.1020
vn -0.1304 0.9908 -0.0350
vn -0.8968 -0.3715 -0.2403
vn -0.8968 0.3715 -0.2403
vn -0.1304 -0.9908 -0.0350
vn -0.3807 0.9191 -0.1020
vn -0.7760 -0.5955 -0.2079
vn -0.9582 0.1262 -0.2568
vn -0.6008 0.7830 -0.1610
vn -0.6008 -0.7830 -0.1610
vn -0.7015 0.1262 -0.7015
vn -0.4398 0.7830 -0.4398
vn -0.4398 -0.7830 -0.4398
vn -0.7015 -0.1262 -0.7015
vn -0.5681 0.5955 -0.5681
vn -0.2787 -0.9191 -0.2787
vn -0.0955 0.9908 -0.0955
vn -0.6565 -0.3715 -0.6565
vn -0.6565 0.3715 -0.6565
vn -0.0955 -0.9908 -0.0955
vn -0.2787 0.9191 -0.2787
vn -0.5681 -0.5955 -0.5681
vn -0.2403 -0.3715 -0.8968
vn -0.2403 0.3715 -0.8968
vn -0.0350 -0.9908 -0.1304
vn -0.1020 0.9191 -0.3807
vn -0.2079 -0.5955 -0.7760
vn -0.2568 0.1262 -0.9582
vn -0.1610 0.7830 -0.6008
vn -0.1610 -0.7830 -0.6008
vn -0.2568 -0.1262 -0.9582
vn -0.2079 0.5955 -0.7760
vn -0.1020 -0.9191 -0.3807
vn -0.0350 0.9908 -0.1304
usemtl None
s off
f 3//1 2//1 14//1 15//1
f 10//2 9//2 21//2
f 1//3 133//3 11//3 12//3
f 7//4 6//4 18//4 19//4
f 4//5 3//5 15//5 16//5
f 134//6 1//6 12//6 13//6
f 8//7 7//7 19//7 20//7
f 5//8 4//8 16//8 17//8
f 2//9 134//9 13//9 14//9
f 9//10 8//10 20//10 21//10
f 133//11 132//11 11//11
f 6//12 5//12 17//12 18//12
f 13//13 12//13 23//13 24//13
f 20//14 19//14 30//14 31//14
f 17//15 16//15 27//15 28//15
f 14//16 13//16 24//16 25//16
f 21//17 20//17 31//17 32//17
f 11//18 132//18 22//18
f 18//19 17//19 28//19 29//19
f 15//20 14//20 25//20 26//20
f 10//21 21//21 32//21
f 12//22 11//22 22//22 23//22
f 19//23 18//23 29//23 30//23
f 16//24 15//24 26//24 27//24
f 10//25 32//25 43//25
f 23//26 22//26 33//26 34//26
f 30//27 29//27 40//27 41//27
f 27//28 26//28 37//28 38//28
f 24//29 23//29 34//29 35//29
f 31//30 30//30 41//30 42//30
f 28//31 27//31 38//31 39//31
f 25//32 24//32 35//32 36//32
f 32//33 31//33 42//33 43//33
f 22//34 132//34 33//34
f 29//35 28//35 39//35 40//35
f 26//36 25//36 36//36 37//36
f 36//37 35//37 46//37 47//37
f 43//38 42//38 53//38 54//38
f 33//39 132//39 44//39
f 40//40 39//40 50//40 51//40
f 37//41 36//41 47//41 48//41
f 10//42 43//42 54//42
f 34//43 33//43 44//43 45//43
f 41//44 40//44 51//44 52//44
f 38//45 37//45 48//45 49//45
f 35//46 34//46 45//46 46//46
f 42//47 41//47 52//47 53//47
f 39//48 38//48 49//48 50//48
f 46//49 45//49 56//49 57//49
f 53//50 52//50 63//50 64//50
f 50//51 49//51 60//51 61//51
f 47//52 46//52 57//52 58//52
f 54//53 53//53 64//53 65//53
f 44//54 132//54 55//54
f 51//55 50//55 61//55 62//55
f 48//56 47//56 58//56 59//56
f 10//57 54//57 65//57
f 45//58 44//58 55//58 56//58
f 52//59 51//59 62//59 63//59
f 49//60 48//60 59//60 60//60
f 59//61 58//61 69//61 70//61
f 10//62 65//62 76//62
f 56//63 55//63 66//63 67//63
f 63//64 62//64 73//64 74//64
f 60//65 59//65 70//65 71//65
f 57//66 56//66 67//66 68//66
f 64//67 63//67 74//67 75//67
f 61//68 60//68 71//68 72//68
f 58//69 57//69 68//69 69//69
f 65//70 64//70 75//70 76//70
f 55//71 132//71 66//71
f 62//72 61//72 72//72 73//72
f 69//73 68//73 79//73 80//73
f 76//74 75//74 86//74 87//74
f 66//75 132//75 77//75
f 73//76 72//76 83//76 84//76
f 70//77 69//77 80//77 81//77
f 10//78 76//78 87//78
f 67//79 66//79 77//79 78//79
f 74//80 73//80 84//80 85//80
f 71//81 70//81 81//81 82//81
f 68//82 67//82 78//82 79//82
f 75//83 74//83 85//83 86//83
f 72//84 71//84 82//84 83//84
f 82//85 81//85 92//85 93//85
f 79//86 78//86 89//86 90//86
f 86//87 85//87 96//87 97//87
f 83//88 82//88 93//88 94//88
f 80//89 79//89 90//89 91//89
f 87//90 86//90 97//90 98//90
f 77//91 132//91 88//91
f 84//92 83//92 94//92 95//92
f 81//93 80//93 91//93 92//93
f 10//94 87//94 98//94
f 78//95 77//95 88//95 89//95
f 85//96 84//96 95//96 96//96
f 92//97 91//97 102//97 103//97
f 10//98 98//98 109//98
f 89//99 88//99 99//99 100//99
f 96//100 95//100 106//100 107//100
f 93//101 92//101 103//101 104//101
f 90//102 89//102 100//102 101//102
f 97//103 96//103 107//103 108//103
f 94//104 93//104 104//104 105//104
f 91//105 90//105 101//105 102//105
f 98//106 97//106 108//106 109//106
f 88//107 132//107 99//107
f 95//108 94//108 105//108 106//108
f 105//109 104//109 115//109 116//109
f 102//110 101//110 112//110 113//110
f 109//111 108//111 119//111 120//111
f 99//112 132//112 110//112
f 106//113 105//113 116//113 117//113
f 103//114 102//114 113//114 114//114
f 10//115 109//115 120//115
f 100//116 99//116 110//116 111//116
f 107//117 106//117 117//117 118//117
f 104//118 103//118 114//118 115//118
f 101//119 100//119 111//119 112//119
f 108//120 107//120 118//120 119//120
f 115//121 114//121 125//121 126//121
f 112//122 111//122 122//122 123//122
f 119//123 118//123 129//123 130//123
f 116//124 115//124 126//124 127//124
f 113//125 112//125 123//125 124//125
f 120//126 119//126 130//126 131//126
f 110//127 132//127 121//127
f 117//128 116//128 127//128 128//128
f 114//129 113//129 124//129 125//129
f 10//130 120//130 131//130
f 111//131 110//131 121//131 122//131
f 118//132 117//132 128//132 129//132
f 128//133 127//133 5//133 6//133
f 125//134 124//134 2//134 3//134
f 10//135 131//135 9//135
f 122//136 121//136 133//136 1//136
f 129//137 128//137 6//137 7//137
f 126//138 125//138 3//138 4//138
f 123//139 122//139 1//139 134//139
f 130//140 129//140 7//140 8//140
f 127//141 126//141 4//141 5//141
f 124//142 123//142 134//142 2//142
f 131//143 130//143 8//143 9//143
f 121//144 132//144 133//144
